<svg id="Capa_1" enable-background="new 0 0 512 512" height="512" viewBox="0 0 512 512" width="512" xmlns="http://www.w3.org/2000/svg" xmlns:xlink="http://www.w3.org/1999/xlink"><linearGradient id="SVGID_1_" gradientUnits="userSpaceOnUse" x1="15.63" x2="496.37" y1="256" y2="256"><stop offset="0" stop-color="#d2deff" stop-opacity="0"/><stop offset="1" stop-color="#b7c5ff"/></linearGradient><g><g><g><path d="m20.722 179.563c26.255 85.007 107.775 89.005 182.131 93.553 244.867 14.978-63.002 218.186 146.697 238.304 77.136 7.4 157.787-56.956 145.589-140.291-11.107-75.879-121.152-121.073-121.207-191.979-.043-55.945 103.86-96.409 36.272-156.553-60.248-53.612-442.87-15.888-389.482 156.966z" fill="url(#SVGID_1_)"/></g><g><path d="m385.135 325.111h-.533v-98.585c14.806-4.171 25.663-17.766 25.663-33.906 0-16.14-10.857-29.735-25.663-33.906v-77.175c0-5.523-4.477-10-10-10h-234.196c-5.523 0-10 4.477-10 10v163.931c-16.321 3.076-28.671 17.398-28.671 34.613 0 17.215 12.35 31.537 28.671 34.613v163.765c0 5.523 4.477 10 10 10h234.196c5.523 0 10-4.477 10-10v-103.09h.533c13.879 0 25.13-11.251 25.13-25.13s-11.251-25.13-25.13-25.13z" fill="#2626bc" opacity=".1"/><g><path d="m374.602 464.461h-234.196c-5.523 0-10-4.477-10-10v-139.765l21.572-87.231-21.572-63.173v-106.753c0-5.523 4.477-10 10-10h234.196c5.523 0 10 4.477 10 10v396.922c0 5.523-4.477 10-10 10z" fill="#6583fe"/><path d="m130.41 101.61h254.19v308.78h-254.19z" fill="#fff"/><g><path d="m264.91 82.574h-61.788c-2.761 0-5-2.238-5-5s2.239-5 5-5h61.788c2.761 0 5 2.238 5 5s-2.239 5-5 5z" fill="#2626bc"/></g><g fill="#fff"><path d="m327.848 86.824h-8.5c-2.761 0-5-2.239-5-5v-8.5c0-2.761 2.239-5 5-5h8.5c2.762 0 5 2.239 5 5v8.5c0 2.761-2.238 5-5 5z"/><path d="m355.618 86.824h-8.5c-2.761 0-5-2.239-5-5v-8.5c0-2.761 2.239-5 5-5h8.5c2.761 0 5 2.239 5 5v8.5c0 2.761-2.238 5-5 5z"/><path d="m355.618 443.863h-8.5c-2.761 0-5-2.239-5-5v-8.5c0-2.761 2.239-5 5-5h8.5c2.761 0 5 2.239 5 5v8.5c0 2.762-2.238 5-5 5z"/><path d="m308.848 446.008h-139.5c-6.351 0-11.5-5.149-11.5-11.5 0-6.351 5.149-11.5 11.5-11.5h139.5c6.351 0 11.5 5.149 11.5 11.5 0 6.352-5.149 11.5-11.5 11.5z"/></g><g><g><g><path d="m225.961 203.853h149.071c19.458 0 35.232-15.774 35.232-35.232 0-19.458-15.774-35.232-35.232-35.232h-118.839c-19.458 0-35.232 15.774-35.232 35.232v30.232c0 2.761 2.239 5 5 5z" fill="#fff"/></g><g><g><path d="m297.167 164.292h73.519c2.762 0 5-2.239 5-5s-2.238-5-5-5h-73.519c-2.762 0-5 2.239-5 5s2.238 5 5 5z" fill="#2626bc"/></g><g><path d="m335.871 229.082h16.52c2.762 0 5-2.239 5-5s-2.238-5-5-5h-16.52c-2.762 0-5 2.239-5 5s2.239 5 5 5z" fill="#2626bc"/></g><g><path d="m255.167 182.949h115.519c2.762 0 5-2.239 5-5s-2.238-5-5-5h-115.519c-2.762 0-5 2.239-5 5s2.238 5 5 5z" fill="#2626bc"/></g></g></g><g><g><path d="m255.961 342.371h129.174c13.879 0 25.13-11.251 25.13-25.13 0-13.879-11.251-25.13-25.13-25.13h-109.044c-13.879 0-25.13 11.251-25.13 25.13v20.13c0 2.762 2.239 5 5 5z" fill="#fff"/></g><g><g><path d="m335.871 367.601h16.52c2.762 0 5-2.239 5-5s-2.238-5-5-5h-16.52c-2.762 0-5 2.239-5 5s2.239 5 5 5z" fill="#2626bc"/></g><g><path d="m288.112 321.467h85.52c2.762 0 5-2.239 5-5s-2.238-5-5-5h-85.52c-2.762 0-5 2.239-5 5s2.238 5 5 5z" fill="#2626bc"/></g></g></g><g><g><path d="m226.039 291.315h-89.072c-19.458 0-35.232-15.774-35.232-35.232 0-19.458 15.774-35.232 35.232-35.232h58.839c19.458 0 35.232 15.774 35.232 35.232v30.232c.001 2.762-2.238 5-4.999 5z" fill="#fff"/></g><g><g><path d="m172.833 251.755h-31.52c-2.762 0-5-2.239-5-5s2.238-5 5-5h31.52c2.762 0 5 2.239 5 5s-2.238 5-5 5z" fill="#2626bc"/></g><g><path d="m176.129 316.545h-16.52c-2.762 0-5-2.239-5-5s2.238-5 5-5h16.52c2.762 0 5 2.239 5 5s-2.239 5-5 5z" fill="#2626bc"/></g><g><path d="m196.833 270.411h-55.52c-2.762 0-5-2.239-5-5s2.238-5 5-5h55.52c2.762 0 5 2.239 5 5 0 2.762-2.238 5-5 5z" fill="#2626bc"/></g></g></g></g><path d="m182.003 85.357h-2.834l.449 2.725.409 2.485.226 1.371c.161.977-.593 1.865-1.582 1.865h-6.663v7.806h-20.029v-25.296c0-8.734 7.08-15.814 15.813-15.814 8.734 0 15.814 7.08 15.814 15.814v7.439c-.001.886-.717 1.605-1.603 1.605z" fill="#fff"/></g><g fill="#6583fe"><path d="m77.578 310.295c-2.761 0-5-2.238-5-5 0-3.309-2.691-6-6-6-2.761 0-5-2.238-5-5s2.239-5 5-5c3.309 0 6-2.691 6-6 0-2.762 2.239-5 5-5s5 2.238 5 5c0 3.309 2.691 6 6 6 2.761 0 5 2.238 5 5s-2.239 5-5 5c-3.309 0-6 2.691-6 6 0 2.762-2.239 5-5 5z"/><path d="m60 350.86c-2.761 0-5-2.238-5-5 0-3.309-2.691-6-6-6-2.761 0-5-2.238-5-5s2.239-5 5-5c3.309 0 6-2.691 6-6 0-2.762 2.239-5 5-5s5 2.238 5 5c0 3.309 2.691 6 6 6 2.761 0 5 2.238 5 5s-2.239 5-5 5c-3.309 0-6 2.691-6 6 0 2.762-2.239 5-5 5z"/><path d="m444.892 259.465c-2.761 0-5-2.238-5-5 0-3.309-2.691-6-6-6-2.761 0-5-2.238-5-5s2.239-5 5-5c3.309 0 6-2.691 6-6 0-2.762 2.239-5 5-5s5 2.238 5 5c0 3.309 2.691 6 6 6 2.761 0 5 2.238 5 5s-2.239 5-5 5c-3.309 0-6 2.691-6 6 0 2.762-2.239 5-5 5z"/><path d="m427 407.805c-1.28 0-2.559-.488-3.536-1.465l-11-11c-1.953-1.952-1.953-5.118 0-7.07l11-11c1.953-1.953 5.118-1.953 7.071 0l11 11c1.953 1.952 1.953 5.118 0 7.07l-11 11c-.976.976-2.255 1.465-3.535 1.465zm-3.929-16 3.929 3.929 3.929-3.929-3.929-3.929z"/><path d="m88.578 201.457c-1.28 0-2.559-.488-3.536-1.465l-11-11c-1.953-1.952-1.953-5.118 0-7.07l11-11c1.953-1.953 5.118-1.953 7.071 0l11 11c1.953 1.952 1.953 5.118 0 7.07l-11 11c-.976.977-2.256 1.465-3.535 1.465zm-3.929-16 3.929 3.929 3.929-3.929-3.929-3.929z"/></g></g></g><g fill="#2626bc"><g><path d="m306.778 390.466c0 2.809-2.277 5.085-5.085 5.085-2.809 0-5.085-2.277-5.085-5.085 0-2.809 2.277-5.085 5.085-5.085s5.085 2.277 5.085 5.085z"/><path d="m323.822 390.466c0 2.809-2.277 5.085-5.086 5.085s-5.085-2.277-5.085-5.085c0-2.809 2.277-5.085 5.085-5.085 2.809 0 5.086 2.277 5.086 5.085z"/><path d="m340.867 390.466c0 2.809-2.277 5.085-5.085 5.085-2.809 0-5.086-2.277-5.086-5.085 0-2.809 2.277-5.085 5.086-5.085 2.808 0 5.085 2.277 5.085 5.085z"/><path d="m357.911 390.466c0 2.809-2.277 5.085-5.085 5.085-2.809 0-5.085-2.277-5.085-5.085 0-2.809 2.277-5.085 5.085-5.085s5.085 2.277 5.085 5.085z"/></g><path d="m136.967 296.315h89.072c5.514 0 10-4.486 10-10v-30.232c0-22.185-18.048-40.232-40.232-40.232h-58.839c-22.184 0-40.232 18.048-40.232 40.232 0 18.168 12.108 33.554 28.675 38.533v159.844c0 8.271 6.729 15 15 15h234.189c8.271 0 15-6.729 15-15v-107.422c14.504-2.164 25.665-14.701 25.665-29.797 0-15.1-11.164-27.641-25.665-29.801v-81.329c15.002-5.85 25.664-20.444 25.664-37.492 0-17.047-10.663-31.641-25.664-37.491v-73.588c0-8.271-6.729-15-15-15h-234.19c-8.271 0-15 6.729-15 15v127.917c0 2.762 2.239 5 5 5s5-2.238 5-5v-127.917c0-2.757 2.243-5 5-5h234.19c2.757 0 5 2.243 5 5v71.115c-1.5-.17-3.022-.267-4.567-.267h-118.84c-22.184 0-40.232 18.048-40.232 40.231v30.232c0 5.514 4.486 10 10 10h149.072c1.545 0 3.067-.096 4.567-.267v83.525c0 2.762 2.239 5 5 5h.535c11.1 0 20.13 9.03 20.13 20.13s-9.03 20.13-20.13 20.13h-.525c-.003 0-.006-.001-.01-.001s-.006.001-.01.001h-128.63v-20.13c0-11.1 9.03-20.13 20.13-20.13h74.849c2.761 0 5-2.238 5-5s-2.239-5-5-5h-74.849c-16.614 0-30.13 13.517-30.13 30.13v20.13c0 5.514 4.486 10 10 10h123.64v107.091c0 2.757-2.243 5-5 5h-234.19c-2.757 0-5-2.243-5-5v-158.184c.518.02 1.035.039 1.557.039zm88.994-97.463v-30.232c0-16.67 13.562-30.231 30.232-30.231h118.839c16.67 0 30.232 13.561 30.232 30.231s-13.562 30.232-30.232 30.232zm-119.226 57.231c0-16.67 13.562-30.232 30.232-30.232h58.839c16.671 0 30.232 13.562 30.232 30.232l.006 30.232h-89.078c-16.669 0-30.231-13.562-30.231-30.232z"/></g></g></svg>