<svg id="line" height="512" viewBox="0 0 64 64" width="512" xmlns="http://www.w3.org/2000/svg"><path d="m29 42a1.00063 1.00063 0 0 1 .9209.60937l2.16992 5.11231 6.02832-11.1958a1.04173 1.04173 0 0 1 1.76172 0l6.11914 11.36474 6.11914-11.36474a1.00066 1.00066 0 0 1 1.77734.03076l2.69141 5.44336h5.89819a16.088 16.088 0 0 0 .51392-3.94287v-1.92237a13.25276 13.25276 0 0 0 -6.86035-11.80176c-5.5957-2.9878-11.80371-.80372-16.14063 5.55322-4.33402-6.35644-10.53902-8.54345-16.13867-5.55322a13.25276 13.25276 0 0 0 -6.86035 11.80176v1.92237a16.088 16.088 0 0 0 .51392 3.94287z" fill="#c4a2fc"/><path d="m56.25586 44-.02832.00732a.98287.98287 0 0 1 -1.124-.49707l-2.14161-4.33057-6.08107 11.29444a1.04173 1.04173 0 0 1 -1.76172 0l-6.11914-11.36475-6.083 11.29737a1.00179 1.00179 0 0 1 -1.83789.05078l-2.74122-6.45752h-10.19684c2.925 7.845 11.21314 15.38342 21.53278 18.94531a1 1 0 0 0 .65234 0c10.31964-3.56189 18.60773-11.10031 21.53283-18.94531z" fill="#c4a2fc"/><g fill="#151a6a"><path d="m7.5 32.02724c-3.584 0-6.5-3.813-6.5-8.5s2.916-8.5 6.5-8.5 6.5 3.813 6.5 8.5-2.916 8.5-6.5 8.5zm0-15c-2.48145 0-4.5 2.916-4.5 6.5s2.01855 6.5 4.5 6.5 4.5-2.916 4.5-6.5-2.01855-6.5-4.5-6.5z"/><path d="m44.51758 32.02724c-3.584 0-6.5-3.813-6.5-8.5s2.916-8.5 6.5-8.5 6.5 3.813 6.5 8.5-2.91602 8.5-6.5 8.5zm0-15c-2.48145 0-4.5 2.916-4.5 6.5s2.01855 6.5 4.5 6.5 4.5-2.916 4.5-6.5-2.01858-6.5-4.5-6.5z"/><path d="m36 50.02724a.98417.98417 0 0 1 -.19629-.01953 50.87056 50.87056 0 0 0 -19.60742 0 1.054 1.054 0 0 1 -.19629.01953c-3.85937 0-7-4.26172-7-9.5 0-4.28516 2.02637-7.95361 5.042-9.12793a4.53208 4.53208 0 0 0 3.10448-3.69331 8.95345 8.95345 0 0 1 17.72754.02148 4.43228 4.43228 0 0 0 3.0752 3.66846c2.97363 1.15327 5.05078 4.90815 5.05078 9.1313 0 5.23828-3.14062 9.5-7 9.5zm-9.99121-28a6.98053 6.98053 0 0 0 -6.88179 5.96094 6.52048 6.52048 0 0 1 -4.3584 5.27441c-2.2188.86426-3.7686 3.85156-3.7686 7.26465 0 4.09033 2.19434 7.42627 4.91016 7.499a52.83935 52.83935 0 0 1 20.17968 0c2.71582-.07273 4.91016-3.40867 4.91016-7.499 0-3.417-1.55176-6.40527-3.77344-7.26709a6.42543 6.42543 0 0 1 -4.333-5.25635 6.97792 6.97792 0 0 0 -6.88477-5.97656z"/><path d="m10.96 10.60683c-.3931-4.49632 1.98606-9.2136 6.24317-9.58594 3.86914-.33252 7.3789 3.40869 7.8125 8.356v.00049c.43261 4.94677-2.36817 9.24707-6.24317 9.58593-4.34229.38086-7.42981-3.97882-7.8125-8.35648zm6.417-7.59375c-3.10689.27241-4.71567 4.10409-4.4248 7.41943.28573 3.27678 2.51718 6.81365 5.64648 6.53858 2.77539-.24317 4.76075-3.57129 4.42481-7.41993v.00049c-.29639-3.38065-2.55584-6.80309-5.64649-6.53857z"/><path d="m33.22754 18.96327c-3.875-.33886-6.67578-4.63916-6.24316-9.58593v-.00049c.43359-4.94727 3.94726-8.69141 7.8125-8.356 4.27717.37409 6.63387 5.11653 6.24316 9.58643-.38637 4.41849-3.50361 8.73397-7.8125 8.35599zm-4.251-9.41211c-.33593 3.84864 1.64942 7.17676 4.42481 7.41993 3.10075.27236 5.35674-3.21622 5.64648-6.53809.28787-3.282-1.29776-7.14574-4.4248-7.41992-2.76563-.24756-5.30957 2.689-5.64649 6.53857z"/></g></svg>