<svg id="Capa_1" enable-background="new 0 0 512 512" height="512" viewBox="0 0 512 512" width="512" xmlns="http://www.w3.org/2000/svg"><path d="m480.119 438.107v-260.785c0-12.965-10.511-23.476-23.476-23.476h-400.286c-12.965 0-23.476 10.51-23.476 23.476v260.786h447.238z" fill="#26a6fe"/><path d="m456.643 153.846h-30c12.965 0 23.476 10.51 23.476 23.476v260.786h30v-260.786c0-12.966-10.511-23.476-23.476-23.476z" fill="#0593fc"/><path d="m67.881 438.107v-235.987c0-7.331 5.943-13.274 13.274-13.274h349.69c7.331 0 13.274 5.943 13.274 13.274v235.987z" fill="#fff3ef"/><path d="m430.845 188.846h-30c7.331 0 13.274 5.943 13.274 13.274v235.987h30v-235.987c0-7.331-5.943-13.274-13.274-13.274z" fill="#d9e7ec"/><path d="m489.446 487.941h-466.892c-8.314 0-15.054-6.74-15.054-15.054v-34.81h497v34.81c0 8.314-6.74 15.054-15.054 15.054z" fill="#0182fc"/><path d="m474.5 438.078v34.81c0 8.314-6.74 15.054-15.054 15.054h30c8.314 0 15.054-6.74 15.054-15.054v-34.81z" fill="#0067c5"/><path d="m292.775 463.009h-73.55c-13.769 0-24.932-11.162-24.932-24.932h123.413c0 13.77-11.162 24.932-24.931 24.932z" fill="#0055a3"/><ellipse cx="172.539" cy="372.672" fill="#fc9086" rx="23.983" ry="23.983" transform="matrix(.23 -.973 .973 .23 -229.806 454.973)"/><ellipse cx="172.539" cy="372.672" fill="#00f2a6" rx="23.983" ry="23.983" transform="matrix(.23 -.973 .973 .23 -229.806 454.973)"/><path d="m172.539 404.155c-17.359 0-31.482-14.123-31.482-31.482 0-17.36 14.123-31.483 31.482-31.483s31.482 14.123 31.482 31.483c0 17.359-14.123 31.482-31.482 31.482zm0-47.966c-9.089 0-16.482 7.394-16.482 16.483 0 9.088 7.394 16.482 16.482 16.482s16.482-7.394 16.482-16.482c0-9.089-7.393-16.483-16.482-16.483z" fill="#18191b"/><ellipse cx="256.5" cy="372.672" fill="#fc9086" rx="23.983" ry="23.983" transform="matrix(.16 -.987 .987 .16 -152.447 566.165)"/><ellipse cx="256.5" cy="372.672" fill="#fee45a" rx="23.983" ry="23.983" transform="matrix(.16 -.987 .987 .16 -152.447 566.165)"/><path d="m256.5 404.155c-17.359 0-31.482-14.123-31.482-31.482 0-17.36 14.123-31.483 31.482-31.483s31.482 14.123 31.482 31.483c0 17.359-14.123 31.482-31.482 31.482zm0-47.966c-9.089 0-16.482 7.394-16.482 16.483 0 9.088 7.394 16.482 16.482 16.482s16.482-7.394 16.482-16.482c0-9.089-7.393-16.483-16.482-16.483z" fill="#18191b"/><ellipse cx="340.461" cy="372.672" fill="#fc9086" rx="23.983" ry="23.983" transform="matrix(.707 -.707 .707 .707 -163.8 349.896)"/><ellipse cx="340.461" cy="372.672" fill="#fd6930" rx="23.983" ry="23.983" transform="matrix(.707 -.707 .707 .707 -163.8 349.896)"/><path d="m340.461 404.155c-17.359 0-31.482-14.123-31.482-31.482 0-17.36 14.123-31.483 31.482-31.483s31.482 14.123 31.482 31.483c0 17.359-14.123 31.482-31.482 31.482zm0-47.966c-9.089 0-16.482 7.394-16.482 16.483 0 9.088 7.394 16.482 16.482 16.482s16.482-7.394 16.482-16.482c0-9.089-7.393-16.483-16.482-16.483z" fill="#18191b"/><path d="m347.665 143.805.19-27.869c0-50.742-41.134-91.877-91.877-91.877-50.742 0-91.877 41.135-91.877 91.877l-.19 27.869z" fill="#537983"/><path d="m255.979 24.059c-5.109 0-10.118.424-15 1.226 43.606 7.162 76.877 45.018 76.877 90.651l-.19 27.869h30l.19-27.869c-.001-50.742-41.135-91.877-91.877-91.877z" fill="#3e5959"/><circle cx="352.143" cy="169.033" fill="#7ca1b1" r="27.942"/><circle cx="159.857" cy="169.033" fill="#7ca1b1" r="27.942"/><path d="m164.102 119.141-.418 61.118c0 50.742 41.135 91.877 91.877 91.877 50.742 0 91.877-41.135 91.877-91.877l.417-61.107c-.003-.004-.005-.007-.007-.01-20.319-7.063-38.408-19.376-52.43-35.69l-1.017-1.183-6.957 3.484c-31.325 15.689-65.079 25.965-99.833 30.393z" fill="#fed2a4"/><path d="m347.848 119.141c-20.319-7.063-38.408-19.376-52.43-35.69l-1.017-1.183-6.957 3.484c-4.523 2.266-9.103 4.405-13.723 6.443 7.049 6.725 20.054 14.374 30.127 19.8 8.614 4.64 13.958 13.648 13.893 23.432-.121 18.105-.302 44.832-.302 44.832 0 45.633-33.271 83.489-76.877 90.651 4.882.802 9.891 1.226 15 1.226 50.742 0 91.877-41.134 91.877-91.877l.417-61.107c-.003-.004-.005-.007-.008-.011z" fill="#ffbd86"/><circle cx="327.133" cy="254.372" fill="#7ca1b1" r="21.613"/><path d="m504.5 430.578h-16.881v-253.256c0-17.08-13.896-30.976-30.977-30.976 0 0-77.031.014-77.264.036-5.882-7.06-14.452-11.8-24.123-12.646 0 0 .099-17.233.099-17.799 0-54.797-44.58-99.377-99.377-99.377s-99.377 44.58-99.377 99.377c0 .553-.099 17.817-.099 17.817-9.572.903-18.048 5.626-23.881 12.628-.233-.022-.468-.036-.707-.036h-75.557c-17.08 0-30.976 13.896-30.976 30.976v253.256h-17.88c-4.143 0-7.5 3.358-7.5 7.5v34.81c0 12.436 10.117 22.554 22.554 22.554h325.356c4.143 0 7.5-3.358 7.5-7.5s-3.357-7.5-7.5-7.5h-325.356c-4.165 0-7.554-3.389-7.554-7.554v-27.31h98.667c4.143 0 7.5-3.358 7.5-7.5s-3.357-7.5-7.5-7.5h-38.286v-228.458c0-3.184 2.591-5.774 5.774-5.774h56.007c.042 0 .083-.006.125-.006 5.97 4.942 13.582 7.959 21.882 8.118 10.834 43.139 49.939 75.177 96.392 75.177 16.049 0 31.906-3.902 46.038-11.294 4.953 9.017 14.54 15.144 25.534 15.144 13.456 0 24.805-9.178 28.126-21.602l9.275-4.862c8.187-4.292 12.733-13.313 11.313-22.449l-5.469-35.16c1.52-.916 2.967-1.94 4.328-3.066h56.14c3.184 0 5.774 2.59 5.774 5.774v228.458h-292.953c-4.143 0-7.5 3.358-7.5 7.5s3.357 7.5 7.5 7.5h44.012c3.394 14.277 16.245 24.932 31.546 24.932h73.55c15.301 0 28.152-10.655 31.547-24.932h172.678v27.31c0 4.165-3.389 7.554-7.554 7.554h-111.536c-4.143 0-7.5 3.358-7.5 7.5s3.357 7.5 7.5 7.5h111.536c12.437 0 22.554-10.118 22.554-22.554v-34.81c0-4.142-3.357-7.5-7.5-7.5zm-131.914-261.545c0 10.469-7.913 19.113-18.071 20.293.271-2.988.423-5.994.423-9.016l.215-31.473c9.847 1.463 17.433 9.949 17.433 20.196zm-116.607-137.474c43.807 0 79.912 33.561 83.983 76.32-14.859-6.857-28.143-16.854-38.855-29.315l-1.017-1.183c-2.242-2.609-5.97-3.359-9.048-1.818l-6.956 3.484c-30.646 15.349-63.423 25.328-97.423 29.659l-14.875 1.895c2.764-44.047 39.459-79.042 84.191-79.042zm-195.598 170.561v228.458h-20v-253.256c0-8.809 7.167-15.976 15.976-15.976h68.907c-.55 2.477-.849 5.047-.849 7.687 0 4.328.783 8.476 2.209 12.313h-45.469c-11.455 0-20.774 9.319-20.774 20.774zm79.033-33.087c0-10.091 7.357-18.477 16.985-20.127l-.214 31.353c0 3.01.142 5.987.406 8.93-9.722-1.572-17.177-9.999-17.177-20.156zm116.148 95.602c-46.525 0-84.377-37.851-84.377-84.325l.373-54.558 17.002-2.166c35.683-4.546 70.082-15.019 102.244-31.127l1.791-.897c13.22 14.379 29.567 25.605 47.726 32.783l-.382 55.915c0 16.007-4.499 31.55-13.001 45.005-15.631.104-28.37 12.589-28.891 28.119-.49.152-.973.355-1.439.615-12.474 6.958-26.668 10.636-41.046 10.636zm71.571 3.85c-7.781 0-14.112-6.331-14.112-14.113s6.331-14.113 14.112-14.113c7.782 0 14.113 6.331 14.113 14.113s-6.331 14.113-14.113 14.113zm33.891-31.608c.434 2.791-.955 5.547-3.456 6.858l-2.808 1.472c-2.227-6.696-6.82-12.318-12.787-15.869 4.457-7.832 7.812-16.194 9.986-24.873.062.001.122.009.185.009 1.287 0 2.556-.073 3.808-.208zm69.821-55.531h-45.468c1.427-3.837 2.209-7.985 2.209-12.313 0-2.64-.299-5.21-.849-7.687h69.906c8.81 0 15.977 7.167 15.977 15.976v253.256h-21v-228.458c-.001-11.455-9.32-20.774-20.775-20.774zm-138.071 274.163h-73.55c-6.928 0-12.925-4.063-15.733-9.932h105.018c-2.809 5.869-8.806 9.932-15.735 9.932z"/><path d="m212.144 178.236c-4.143 0-7.5 3.358-7.5 7.5v6.581c0 4.142 3.357 7.5 7.5 7.5s7.5-3.358 7.5-7.5v-6.581c0-4.142-3.358-7.5-7.5-7.5z"/><path d="m302.696 192.317v-6.581c0-4.142-3.357-7.5-7.5-7.5s-7.5 3.358-7.5 7.5v6.581c0 4.142 3.357 7.5 7.5 7.5s7.5-3.358 7.5-7.5z"/><path d="m269.856 207.81c-3.623-2.008-8.188-.699-10.195 2.923-.764 1.378-2.214 2.234-3.784 2.234-1.566 0-3.015-.852-3.778-2.224-2.016-3.618-6.586-4.917-10.202-2.901-3.618 2.017-4.917 6.584-2.901 10.202 3.41 6.121 9.879 9.922 16.882 9.922 7.021 0 13.497-3.817 16.903-9.962 2.007-3.621.698-8.186-2.925-10.194z"/><path d="m214.485 149.266c-9.275-.823-18.326 3-24.208 10.232-2.613 3.213-2.127 7.938 1.086 10.551 1.391 1.131 3.064 1.682 4.728 1.682 2.18 0 4.341-.945 5.823-2.768 2.733-3.361 6.934-5.143 11.243-4.756 4.129.368 7.768-2.681 8.135-6.807.366-4.125-2.681-7.767-6.807-8.134z"/><path d="m298.599 164.208c4.306-.39 8.509 1.395 11.243 4.756 1.482 1.823 3.644 2.768 5.823 2.768 1.663 0 3.337-.55 4.728-1.682 3.213-2.613 3.699-7.337 1.086-10.551-5.882-7.232-14.93-11.057-24.208-10.232-4.126.367-7.173 4.009-6.807 8.135.367 4.125 4.013 7.174 8.135 6.806z"/><path d="m309.506 319.136c4.143 0 7.5-3.358 7.5-7.5s-3.357-7.5-7.5-7.5h-107.012c-4.143 0-7.5 3.358-7.5 7.5s3.357 7.5 7.5 7.5z"/></svg>