<svg id="Capa_1" enable-background="new 0 0 512.058 512.058" height="512" viewBox="0 0 512.058 512.058" width="512" xmlns="http://www.w3.org/2000/svg"><g><g><g><path d="m394.697 504.561h-321.517c-14.286 0-25.868-11.581-25.868-25.868v-445.328c0-14.286 11.581-25.868 25.868-25.868h321.517c14.286 0 25.868 11.581 25.868 25.868v445.328c0 14.286-11.582 25.868-25.868 25.868z" fill="#8d9ca8"/></g><g><path d="m420.566 33.366v445.326c0 14.284-11.585 25.87-25.87 25.87h-19.992c14.284 0 25.87-11.585 25.87-25.87v-445.326c0-14.284-11.585-25.87-25.87-25.87h19.992c14.284 0 25.87 11.585 25.87 25.87z" fill="#7a8c98"/></g><g><path d="m374.136 438.992h-280.395c-5.883 0-10.651-4.769-10.651-10.651v-374.759c0-5.883 4.769-10.651 10.651-10.651h280.396c5.883 0 10.651 4.769 10.651 10.651v374.759c0 5.882-4.769 10.651-10.652 10.651z" fill="#f2fbff"/></g><g><path d="m384.79 53.578v374.764c0 5.878-4.768 10.646-10.656 10.646h-20.082c5.888 0 10.656-4.768 10.656-10.646v-374.764c0-5.878-4.768-10.646-10.656-10.646h20.082c5.888 0 10.656 4.768 10.656 10.646z" fill="#dff6fd"/></g></g><g><path d="m365.316 81.226c-52.407 1.037-94.968 44.054-95.476 96.469-.295 30.396 13.331 57.616 34.888 75.685.665.557 1.062 1.367 1.074 2.234.117 8.565.04 20.302-.549 35.61-.091 2.363 2.462 3.889 4.5 2.689 6.212-3.658 17.42-10.989 26.589-20.988.784-.855 1.975-1.188 3.088-.857 9.99 2.976 20.649 4.399 31.701 3.973 50.391-1.943 91.336-42.663 93.521-93.044 2.446-56.458-43.165-102.882-99.336-101.771z" fill="#fe93bb"/></g><g><path d="m464.647 182.998c-2.179 50.38-43.123 91.104-93.514 93.044-11.056.43-21.712-1-31.708-3.968-1.11-.34-2.299 0-3.089.85-9.166 10.006-20.372 17.333-26.59 20.992-2.029 1.2-4.588-.33-4.498-2.689.36-9.466.54-17.573.58-24.41 5.868-3.998 12.945-9.506 19.103-16.224.78-.85 1.969-1.19 3.089-.85 9.986 2.969 20.642 4.398 31.698 3.968 50.39-1.939 91.334-42.663 93.523-93.044.57-13.055-1.439-25.56-5.558-37.076 11.526 16.763 17.924 37.315 16.964 59.407z" fill="#fe76a8"/></g><g><path d="m252.398 481.922c4.141 0 7.497-3.356 7.497-7.497s-3.356-7.497-7.497-7.497h-36.918c-4.141 0-7.497 3.356-7.497 7.497s3.356 7.497 7.497 7.497z"/><path d="m442.376 105.334c-4.458-4.565-9.249-8.665-14.314-12.284v-59.685c0-18.397-14.968-33.365-33.365-33.365h-235.911c-4.141 0-7.497 3.356-7.497 7.497s3.356 7.497 7.497 7.497h235.911c10.13 0 18.371 8.241 18.371 18.371v50.766c-6.63-3.22-13.589-5.711-20.783-7.454v-23.095c0-10.007-8.141-18.148-18.148-18.148h-280.396c-10.008 0-18.149 8.141-18.149 18.148v374.759c0 10.007 8.141 18.148 18.149 18.148h280.396c10.007 0 18.148-8.141 18.148-18.148v-147.751c7.179-1.766 14.145-4.286 20.783-7.521v205.624c0 10.13-8.241 18.371-18.371 18.371h-321.517c-10.13 0-18.371-8.241-18.371-18.371v-445.328c0-10.13 8.241-18.371 18.371-18.371h50.962c4.141 0 7.497-3.356 7.497-7.497s-3.356-7.497-7.497-7.497h-50.962c-18.397 0-33.365 14.968-33.365 33.365v445.328c0 18.397 14.968 33.365 33.365 33.365h321.517c18.397 0 33.365-14.968 33.365-33.365v-214.578c4.391-3.135 8.578-6.602 12.495-10.427 2.962-2.894 3.019-7.64.126-10.602-2.892-2.962-7.639-3.019-10.602-.126-16.023 15.647-37.062 24.735-59.24 25.591-9.969.385-19.814-.85-29.274-3.667-3.889-1.157-8.005-.018-10.752 2.975-5.707 6.222-12.335 11.371-17.782 15.092.288-9.978.377-19.177.264-27.438-.041-3.038-1.407-5.908-3.753-7.878-20.73-17.375-32.47-42.841-32.207-69.865.226-23.392 9.499-45.517 26.108-62.301 16.61-16.785 38.636-26.284 62.02-26.745 25.14-.516 48.638 9.123 66.185 27.088 17.542 17.961 26.602 41.706 25.51 66.863-.52 11.997-3.398 23.573-8.554 34.407-1.779 3.739-.19 8.212 3.548 9.991 3.733 1.778 8.211.191 9.991-3.548 6.024-12.659 9.387-26.184 9.995-40.2 1.272-29.34-9.298-57.037-29.764-77.991zm-65.085-31.155c-3.29-.306-6.611-.47-9.962-.47-.719 0-1.44.007-2.161.021-27.306.541-53.011 11.618-72.381 31.19-19.366 19.571-30.179 45.391-30.444 72.703-.299 30.835 12.793 59.928 35.986 80.148.092 9.825-.099 20.97-.567 33.165-.147 3.834 1.806 7.438 5.097 9.405 1.656.989 3.515 1.484 5.376 1.484 1.838 0 3.678-.483 5.322-1.451 5.92-3.487 16.896-10.6 26.402-20.363 10.213 2.75 20.778 3.936 31.46 3.522 1.966-.076 3.923-.211 5.872-.397v145.205c0 1.74-1.415 3.154-3.154 3.154h-280.396c-1.74 0-3.155-1.414-3.155-3.154v-374.759c0-1.74 1.416-3.154 3.155-3.154h280.396c1.74 0 3.154 1.414 3.154 3.154z"/><circle cx="367.29" cy="226.676" r="11.412"/><path d="m401.52 143.549c-1.177-16.429-14.41-30.031-30.781-31.641-18.463-1.816-34.888 11.09-37.438 29.372-.221 1.576-.332 3.183-.332 4.779 0 4.141 3.356 7.497 7.497 7.497s7.497-3.356 7.497-7.497c0-.903.063-1.814.188-2.706 1.436-10.288 10.718-17.541 21.121-16.523 9.197.904 16.63 8.553 17.293 17.791.582 8.127-4.015 15.806-11.44 19.109-9.314 4.144-15.332 13.305-15.332 23.339v10.123c0 4.141 3.356 7.497 7.497 7.497s7.497-3.356 7.497-7.497v-10.123c0-4.116 2.525-7.9 6.432-9.639 13.174-5.861 21.333-19.477 20.301-33.881z"/><path d="m122.669 234.172h109.529c4.141 0 7.497-3.356 7.497-7.497s-3.356-7.497-7.497-7.497h-109.529c-4.141 0-7.497 3.356-7.497 7.497s3.356 7.497 7.497 7.497z"/><path d="m232.198 253.987h-32.178c-4.141 0-7.497 3.356-7.497 7.497s3.356 7.497 7.497 7.497h32.178c4.141 0 7.497-3.356 7.497-7.497s-3.356-7.497-7.497-7.497z"/><path d="m122.669 268.981h43.203c4.141 0 7.497-3.356 7.497-7.497s-3.356-7.497-7.497-7.497h-43.203c-4.141 0-7.497 3.356-7.497 7.497s3.356 7.497 7.497 7.497z"/><path d="m122.669 303.789h109.529c4.141 0 7.497-3.356 7.497-7.497s-3.356-7.497-7.497-7.497h-109.529c-4.141 0-7.497 3.356-7.497 7.497s3.356 7.497 7.497 7.497z"/><path d="m257.386 331.1c0 4.141 3.356 7.497 7.497 7.497h80.325c4.141 0 7.497-3.356 7.497-7.497s-3.356-7.497-7.497-7.497h-80.325c-4.141 0-7.497 3.356-7.497 7.497z"/><path d="m122.669 338.597h107.65c4.141 0 7.497-3.356 7.497-7.497s-3.356-7.497-7.497-7.497h-107.65c-4.141 0-7.497 3.356-7.497 7.497s3.356 7.497 7.497 7.497z"/><path d="m345.208 358.411h-169.262c-4.141 0-7.497 3.356-7.497 7.497s3.356 7.497 7.497 7.497h169.263c4.141 0 7.497-3.356 7.497-7.497s-3.357-7.497-7.498-7.497z"/><path d="m122.669 373.405h18.646c4.141 0 7.497-3.356 7.497-7.497s-3.356-7.497-7.497-7.497h-18.646c-4.141 0-7.497 3.356-7.497 7.497s3.356 7.497 7.497 7.497z"/><path d="m345.208 393.219h-45.572c-4.141 0-7.497 3.356-7.497 7.497s3.356 7.497 7.497 7.497h45.572c4.141 0 7.497-3.356 7.497-7.497.001-4.141-3.356-7.497-7.497-7.497z"/><path d="m265.406 393.219h-142.737c-4.141 0-7.497 3.356-7.497 7.497s3.356 7.497 7.497 7.497h142.737c4.141 0 7.497-3.356 7.497-7.497.001-4.141-3.355-7.497-7.497-7.497z"/></g></g></svg>