<svg id="Line" height="512" viewBox="0 0 64 64" width="512" xmlns="http://www.w3.org/2000/svg"><path d="m60 28.99941h-32a3.00328 3.00328 0 0 0 -3 3v22a3.00328 3.00328 0 0 0 3 3h6v5a1.00048 1.00048 0 0 0 1.707.707l5.707-5.707h18.586a3.00328 3.00328 0 0 0 3-3v-22a3.00328 3.00328 0 0 0 -3-3zm-4 22h-24a1 1 0 0 1 0-2h24a1 1 0 0 1 0 2zm0-7h-24a1 1 0 0 1 0-2h24a1 1 0 0 1 0 2zm0-7h-24a1 1 0 0 1 0-2h24a1 1 0 0 1 0 2z" fill="#c4a2fc"/><g fill="#151a6a"><circle cx="16.896" cy="34.313" r="1"/><path d="m48 1h-26a3.00328 3.00328 0 0 0 -3 3v9h-15a3.00328 3.00328 0 0 0 -3 3v20a3.00328 3.00328 0 0 0 3 3h9.58594l5.41406 5.41406v3.58594a3.00328 3.00328 0 0 0 3 3h26a3.00328 3.00328 0 0 0 3-3v-44a3.00328 3.00328 0 0 0 -3-3zm-27 3a1.001 1.001 0 0 1 1-1h26a1.001 1.001 0 0 1 1 1v2h-28zm0 4h28v36h-28v-5h9a2.99507 2.99507 0 0 0 2.81573-2h9.68427a2.50263 2.50263 0 0 0 2.5-2.5v-3a2.50263 2.50263 0 0 0 -2.5-2.5h-9.5v-4h9.5a2.50263 2.50263 0 0 0 2.5-2.5v-3a2.50263 2.50263 0 0 0 -2.5-2.5h-9.5v-1a3.00328 3.00328 0 0 0 -3-3h-9zm12 27v-4h9.5a.50065.50065 0 0 1 .5.5v3a.50065.50065 0 0 1 -.5.5zm0-12v-4h9.5a.50065.50065 0 0 1 .5.5v3a.50065.50065 0 0 1 -.5.5zm-18.293 14.293a.99927.99927 0 0 0 -.707-.293h-10a1.001 1.001 0 0 1 -1-1v-20a1.001 1.001 0 0 1 1-1h26a1.001 1.001 0 0 1 1 1v20a1.001 1.001 0 0 1 -1 1h-10a.99974.99974 0 0 0 -1 1v3.58594zm33.293 11.707h-26a1.001 1.001 0 0 1 -1-1v-2h28v2a1.001 1.001 0 0 1 -1 1z"/><path d="m21.43652 23.3042a4.54627 4.54627 0 0 0 -9.042-.3916 4.49856 4.49856 0 0 0 -.04394.63232 1 1 0 0 0 2 0 2.689 2.689 0 0 1 .02442-.35692 2.54614 2.54614 0 1 1 2.52148 2.90283.99974.99974 0 0 0 -1 1v3.70752a1 1 0 0 0 2 0v-2.82035a4.54251 4.54251 0 0 0 3.54004-4.6738z"/></g></svg>